<?xml version="1.0" encoding="utf-8"?>
<!-- Generator: Adobe Illustrator 17.0.2, SVG Export Plug-In . SVG Version: 6.00 Build 0)  -->
<!DOCTYPE svg PUBLIC "-//W3C//DTD SVG 1.1//EN" "http://www.w3.org/Graphics/SVG/1.1/DTD/svg11.dtd">
<svg version="1.1" id="Calque_1" xmlns="http://www.w3.org/2000/svg" xmlns:xlink="http://www.w3.org/1999/xlink" x="0px" y="0px"
	 width="503.79px" height="106.939px" viewBox="58.579 -0.17 503.79 106.939" enable-background="new 58.579 -0.17 503.79 106.939"
	 xml:space="preserve">
<g>
	<path fill="#E30613" d="M98.08,61.562c-4.244,4.695-10.388,7.405-16.892,7.405c-6.046,0-11.823-2.349-16.067-6.594
		c-5.87-5.867-5.964-11.558-5.964-26.094c0-14.54,0.094-20.227,5.964-26.099c4.244-4.244,10.021-6.59,16.067-6.59
		c11.289,0,19.958,7.403,21.944,18.78H98.26c-1.901-8.85-8.398-14.448-17.073-14.448c-4.605,0-8.939,1.718-12.184,4.97
		c-4.604,4.605-4.968,9.57-4.968,23.386c0,13.814,0.364,18.782,4.968,23.383c3.245,3.254,7.579,4.968,12.184,4.968
		c5.059,0,10.027-2.167,13.366-6.231c2.802-3.429,3.887-7.221,3.887-12.73v-5.782H81.187v-4.334h22.128v10.475
		C103.315,52.71,101.873,57.495,98.08,61.562"/>
	<path fill="#E30613" d="M144.298,8.466h-18.966v26.006h18.966c8.217,0,14.174-4.154,14.174-13.004
		C158.472,12.617,152.515,8.466,144.298,8.466 M158.382,68.426l-15.35-29.622h-17.7v29.622h-4.868V4.131h24.465
		c10.475,0,18.425,6.049,18.425,17.248c0,9.571-5.783,15.803-14.812,17.338l15.526,29.709
		C164.067,68.426,158.382,68.426,158.382,68.426z"/>
	<path fill="#E30613" d="M197.027,10.634l-13.453,37.833h26.906L197.027,10.634 M217.616,68.426l-5.596-15.623h-29.978
		l-5.603,15.623h-5.236l23.66-64.295h4.334l23.653,64.295C222.851,68.426,217.616,68.426,217.616,68.426z"/>
	<polyline fill="#E30613" points="276.108,68.426 239.001,12.529 239.001,68.426 234.127,68.426 234.127,4.131 239.001,4.131 
		276.108,59.842 276.108,4.131 280.99,4.131 280.99,68.426 276.108,68.426 	"/>
	<path fill="#E30613" d="M335.051,13.43c-3.7-3.79-8.668-4.963-13.817-4.963h-15.529v55.622h15.529
		c5.149,0,10.117-1.172,13.817-4.97c5.145-5.234,4.792-16.612,4.792-23.742C339.842,28.239,340.196,18.671,335.051,13.43
		 M338.483,62.556c-3.793,3.79-9.386,5.87-16.074,5.87h-21.58V4.131h21.58c6.689,0,12.281,2.081,16.074,5.872
		c6.505,6.499,6.234,16.701,6.234,25.373C344.718,44.043,344.988,56.051,338.483,62.556z"/>
	<polyline fill="#020203" points="359.606,68.426 359.606,4.131 372.164,4.131 372.164,57.23 401.33,57.23 401.33,68.426 
		359.606,68.426 	"/>
	<polyline fill="#020203" points="428.86,42.054 428.86,68.426 416.399,68.426 416.399,42.054 397.073,4.131 410.706,4.131 
		422.716,30.052 434.546,4.131 448.173,4.131 428.86,42.054 	"/>
	<path fill="#020203" d="M484.645,18.22c-1.813-2.08-4.601-3.434-8.04-3.434c-3.432,0-6.325,1.354-8.127,3.434
		c-2.441,2.708-3.072,5.688-3.072,18.059c0,12.369,0.631,15.346,3.072,18.058c1.803,2.077,4.695,3.432,8.127,3.432
		c3.44,0,6.227-1.356,8.04-3.432c2.438-2.711,3.159-5.688,3.159-18.058C487.803,23.908,487.082,20.928,484.645,18.22 M493.94,61.923
		c-4.511,4.514-10.021,7.044-17.336,7.044c-7.316,0-12.912-2.529-17.426-7.044c-6.501-6.499-6.325-14.538-6.325-25.644
		c0-11.111-0.177-19.144,6.325-25.645c4.515-4.516,10.111-7.044,17.426-7.044c7.316,0,12.825,2.528,17.336,7.044
		c6.504,6.501,6.411,14.534,6.411,25.645C500.351,47.385,500.445,55.423,493.94,61.923z"/>
	<polyline fill="#020203" points="551.17,68.426 525.707,28.964 525.707,68.426 513.159,68.426 513.159,4.131 524.355,4.131 
		549.818,43.501 549.818,4.131 562.369,4.131 562.369,68.426 551.17,68.426 	"/>
	<g>
		<path d="M485.806,88.714h0.059c0.794-1.333,1.785-1.987,3.29-1.987c2.299,0,4.629,0.909,4.629,7.21
			c0,3.576-0.114,7.694-4.739,7.694c-1.363,0-2.358-0.596-3.152-1.732h-0.086v6.87h-2.326V87.011h2.326V88.714z M491.343,93.937
			c0-2.156,0-5.308-2.927-5.308c-2.864,0-2.611,3.974-2.611,6.159c0,1.902,0.114,4.941,2.697,4.941
			C491.004,99.73,491.343,97.771,491.343,93.937z"/>
		<path d="M325.391,99.275h-0.055c-0.711,1.645-1.817,2.356-3.606,2.356c-3.038,0-3.918-1.959-3.918-4.712
			c0-4.344,4.258-4.542,7.524-4.457c0.055-1.902,0.083-3.975-2.413-3.975c-1.56,0-2.385,1.051-2.243,2.556h-2.528
			c0.114-3.208,1.817-4.315,4.857-4.315c3.689,0,4.653,1.902,4.653,4.315v6.898c0,1.135,0.114,2.299,0.284,3.406h-2.555V99.275
			L325.391,99.275z M320.142,97.089c0,1.391,0.679,2.64,2.24,2.64c1.422,0,3.179-0.881,2.954-5.508
			C323.12,94.25,320.142,94.052,320.142,97.089z"/>
		<path d="M367.275,101.347v-9.935c0-1.448-0.399-2.782-2.271-2.782c-0.711,0-1.675,0.426-2.015,0.965
			c-0.426,0.709-0.541,1.561-0.541,2.099v9.653h-2.326V89.992c0-0.994-0.059-1.987-0.142-2.98h2.469v1.787h0.059
			c0.679-1.532,1.9-2.072,3.575-2.072c1.307,0,2.812,0.539,3.349,1.845c0.794-1.533,2.101-1.845,3.408-1.845
			c1.505,0,3.918,0.34,3.918,3.719v10.901h-2.33v-9.935c0-1.448-0.395-2.782-2.271-2.782c-0.881,0-1.134,0.028-1.758,0.539
			c-0.683,0.569-0.798,1.987-0.798,2.526v9.653L367.275,101.347L367.275,101.347z"/>
		<path d="M393.72,94.931c0,4.003,1.081,4.798,2.899,4.798c1.588,0,2.413-1.278,2.496-2.725h2.555
			c-0.028,3.179-1.987,4.627-4.996,4.627c-3.038,0-5.451-0.909-5.451-7.239c0-4.201,0.482-7.664,5.451-7.664
			c4.088,0,5.111,2.242,5.111,6.983v1.221L393.72,94.931L393.72,94.931z M399.313,93.171c0-4.173-1.161-4.685-2.867-4.685
			c-1.473,0-2.694,0.711-2.725,4.685H399.313z M399.881,80.85l-3.717,4.003h-1.904l2.528-4.003H399.881z"/>
		<path d="M417.526,87.012v-2.755l2.33-1.051v3.805h3.121v1.759h-3.121v8.772c0,0.909,0,2.072,2.129,2.072
			c0.17,0,0.538-0.057,1.051-0.112v1.787c-0.766,0.057-1.536,0.227-2.302,0.227c-2.212,0-3.208-0.908-3.208-2.555v-10.19h-2.354
			v-1.759L417.526,87.012L417.526,87.012z"/>
		<path d="M440.389,89.168h0.059c0.964-2.186,2.156-2.441,4.428-2.441v2.413c-0.198-0.029-0.426-0.057-0.624-0.085
			c-0.198-0.029-0.399-0.057-0.624-0.057c-2.583,0-3.238,1.959-3.238,3.888v8.46h-2.326V87.011h2.326V89.168z"/>
		<path d="M458.141,94.391c0-4.201,0.482-7.664,5.45-7.664c4.969,0,5.451,3.464,5.451,7.664c0,6.331-2.413,7.239-5.451,7.239
			C460.554,101.631,458.141,100.723,458.141,94.391z M466.601,93.398c0-3.918-1.221-4.769-3.009-4.769s-3.009,0.851-3.009,4.769
			c0,4.655,0.596,6.331,3.009,6.331C466.005,99.73,466.601,98.053,466.601,93.398z"/>
		<path d="M508.02,94.391c0-4.201,0.482-7.664,5.451-7.664s5.45,3.464,5.45,7.664c0,6.331-2.414,7.239-5.45,7.239
			C510.434,101.631,508.02,100.723,508.02,94.391z M516.48,93.398c0-3.918-1.221-4.769-3.009-4.769
			c-1.789,0-3.009,0.851-3.009,4.769c0,4.655,0.596,6.331,3.009,6.331C515.885,99.73,516.48,98.053,516.48,93.398z"/>
		<path d="M536.334,101.347h-2.326V80.85h2.326V101.347z"/>
		<path d="M553.518,94.931c0,4.003,1.082,4.798,2.898,4.798c1.588,0,2.414-1.278,2.496-2.725h2.555
			c-0.028,3.179-1.986,4.627-4.996,4.627c-3.038,0-5.451-0.909-5.451-7.239c0-4.201,0.482-7.664,5.451-7.664
			c4.088,0,5.111,2.242,5.111,6.983v1.221L553.518,94.931L553.518,94.931z M559.11,93.171c0-4.173-1.162-4.685-2.868-4.685
			c-1.473,0-2.693,0.711-2.725,4.685H559.11z"/>
		<path d="M304.432,101.347h-2.33V80.85h2.33V101.347z"/>
	</g>
</g>
</svg>
