<?xml version="1.0" encoding="utf-8"?>
<!-- Generator: Adobe Illustrator 17.0.2, SVG Export Plug-In . SVG Version: 6.00 Build 0)  -->
<!DOCTYPE svg PUBLIC "-//W3C//DTD SVG 1.1//EN" "http://www.w3.org/Graphics/SVG/1.1/DTD/svg11.dtd">
<svg version="1.1" id="Calque_1" xmlns="http://www.w3.org/2000/svg" xmlns:xlink="http://www.w3.org/1999/xlink" x="0px" y="0px"
	 width="589.386px" height="108.837px" viewBox="0 0 589.386 108.837" enable-background="new 0 0 589.386 108.837"
	 xml:space="preserve">
<g>
	<path fill="#E30613" d="M45.589,84.032c-4.971,5.499-12.167,8.672-19.785,8.672c-7.082,0-13.848-2.751-18.819-7.724
		C0.11,78.109,0,71.443,0,54.419c0-17.03,0.11-23.691,6.985-30.569c4.971-4.971,11.736-7.718,18.819-7.718
		c13.223,0,23.375,8.67,25.702,21.997H45.8c-2.226-10.366-9.836-16.922-19.996-16.922c-5.393,0-10.469,2.012-14.271,5.821
		C6.14,32.421,5.714,38.236,5.714,54.419c0,16.179,0.427,21.999,5.819,27.388c3.801,3.811,8.877,5.819,14.271,5.819
		c5.925,0,11.744-2.538,15.655-7.298c3.281-4.016,4.553-8.457,4.553-14.91v-6.772H25.804V53.57h25.917v12.268
		C51.721,73.664,50.031,79.268,45.589,84.032"/>
	<path fill="#E30613" d="M99.722,21.844H77.508v30.459h22.214c9.624,0,16.601-4.865,16.601-15.231
		C116.323,26.705,109.346,21.844,99.722,21.844 M116.217,92.071L98.239,57.376H77.508v34.695h-5.702V16.766h28.654
		c12.268,0,21.58,7.085,21.58,20.202c0,11.21-6.774,18.51-17.349,20.307l18.185,34.796H116.217z"/>
	<path fill="#E30613" d="M161.481,24.382l-15.756,44.312h31.513L161.481,24.382 M185.595,92.071l-6.555-18.299h-35.111
		l-6.562,18.299h-6.132l27.712-75.305h5.076l27.704,75.305H185.595z"/>
	<polyline fill="#E30613" points="254.104,92.071 210.643,26.602 210.643,92.071 204.934,92.071 204.934,16.766 210.643,16.766 
		254.104,82.018 254.104,16.766 259.822,16.766 259.822,92.071 254.104,92.071 	"/>
	<path fill="#E30613" d="M323.14,27.657c-4.333-4.439-10.152-5.814-16.183-5.814h-18.189v65.147h18.189
		c6.031,0,11.85-1.373,16.183-5.821c6.027-6.13,5.612-19.457,5.612-27.808C328.752,45.002,329.167,33.796,323.14,27.657
		 M327.161,85.195c-4.442,4.439-10.993,6.875-18.827,6.875h-25.275V16.766h25.275c7.834,0,14.384,2.437,18.827,6.878
		c7.619,7.612,7.302,19.562,7.302,29.718C334.462,63.512,334.779,77.577,327.161,85.195z"/>
	<polyline fill="#000100" points="351.9,92.071 351.9,16.766 366.609,16.766 366.609,78.958 400.77,78.958 400.77,92.071 
		351.9,92.071 	"/>
	<polyline fill="#000100" points="433.014,61.183 433.014,92.071 418.419,92.071 418.419,61.183 395.783,16.766 411.751,16.766 
		425.818,47.126 439.674,16.766 455.634,16.766 433.014,61.183 	"/>
	<path fill="#000100" d="M498.351,33.268c-2.124-2.436-5.389-4.022-9.417-4.022c-4.02,0-7.407,1.586-9.519,4.022
		c-2.859,3.172-3.598,6.662-3.598,21.152c0,14.488,0.739,17.974,3.598,21.15c2.112,2.432,5.499,4.02,9.519,4.02
		c4.028,0,7.293-1.588,9.417-4.02c2.855-3.176,3.7-6.662,3.7-21.15C502.051,39.93,501.206,36.439,498.351,33.268 M509.239,84.454
		c-5.283,5.287-11.736,8.25-20.305,8.25c-8.569,0-15.123-2.962-20.41-8.25c-7.615-7.612-7.407-17.028-7.407-30.035
		c0-13.013-0.207-22.423,7.407-30.037c5.287-5.29,11.842-8.25,20.41-8.25c8.568,0,15.022,2.96,20.305,8.25
		c7.618,7.614,7.509,17.023,7.509,30.037C516.748,67.427,516.857,76.842,509.239,84.454z"/>
	<polyline fill="#000100" points="576.269,92.071 546.446,45.851 546.446,92.071 531.749,92.071 531.749,16.766 544.862,16.766 
		574.686,62.878 574.686,16.766 589.386,16.766 589.386,92.071 576.269,92.071 	"/>
</g>
</svg>
