<?xml version="1.0" encoding="utf-8"?>
<!-- Generator: Adobe Illustrator 19.0.0, SVG Export Plug-In . SVG Version: 6.00 Build 0)  -->
<svg version="1.1" id="Calque_1" xmlns="http://www.w3.org/2000/svg" xmlns:xlink="http://www.w3.org/1999/xlink" x="0px" y="0px"
	 viewBox="-80.4 52.3 168.4 50.6" style="enable-background:new -80.4 52.3 168.4 50.6;" xml:space="preserve">
<style type="text/css">
	.st0{fill:#333333;}
</style>
<g id="XMLID_111_">
	<g id="XMLID_131_">
		<path id="XMLID_144_" class="st0" d="M-67.7,61.7h8.8V66h4.3v13.1h-13v8.5h8.5v-4.3h4.5v4.5h-4.3v4.3h-8.8v-4.3h-4.3V66h4.3V61.7z
			 M-67.6,66.2v8.5h8.5v-8.5H-67.6z"/>
		<path id="XMLID_142_" class="st0" d="M-37.5,61.7h4.5v4.5h-4.3v4.3h-4.3v21.6h-4.5V61.7h4.5V66h4.1V61.7z"/>
		<path id="XMLID_139_" class="st0" d="M-24.5,66.2v-4.5h8.8V66h4.3v26.1h-13.1v-4.3h-4.3v-9.1h4.3v-4.3h8.6v-8.1H-24.5z
			 M-15.9,87.6v-8.8h-8.5v8.8H-15.9z"/>
		<path id="XMLID_137_" class="st0" d="M1.6,66.2v8.5h8.6V79h4.3v8.8h-4.3v4.3H1.4v-4.3h-4.3v-4.5h4.5v4.3H10v-8.5H1.4v-4.3h-4.3V66
			h4.3v-4.3h8.8V66h4.3v4.5H10v-4.3H1.6z"/>
		<path id="XMLID_135_" class="st0" d="M40.3,61.7h8.8V66h4.3v26.1h-4.5V66.2h-8.5v25.9h-4.5V66.2h-8.5v25.9H23V61.7h13.1V66h4.1
			V61.7z"/>
		<path id="XMLID_132_" class="st0" d="M66.2,61.7H75V66h4.3v13.1h-13v8.5h8.5v-4.3h4.5v4.5H75v4.3h-8.8v-4.3h-4.3V66h4.3V61.7z
			 M66.4,66.2v8.5h8.5v-8.5H66.4z"/>
	</g>
	<rect id="XMLID_130_" x="-28.9" y="66.2" class="st0" width="4.5" height="4.5"/>
</g>
</svg>
