<?xml version="1.0" encoding="utf-8"?>
<!-- Generator: Adobe Illustrator 17.0.2, SVG Export Plug-In . SVG Version: 6.00 Build 0)  -->
<!DOCTYPE svg PUBLIC "-//W3C//DTD SVG 1.1//EN" "http://www.w3.org/Graphics/SVG/1.1/DTD/svg11.dtd">
<svg version="1.1" id="Calque_1" xmlns="http://www.w3.org/2000/svg" xmlns:xlink="http://www.w3.org/1999/xlink" x="0px" y="0px"
	 width="123.564px" height="50.582px" viewBox="0 0 123.564 50.582" enable-background="new 0 0 123.564 50.582"
	 xml:space="preserve">
<g>
	<rect x="0" y="0" fill="#709920" width="123.564" height="50.582"/>
	<polygon fill="#FFFFFF" points="13.963,5.585 13.963,8.378 8.378,8.378 8.378,13.964 11.171,13.964 11.171,16.756 8.378,16.756 
		8.378,25.134 13.963,25.134 13.963,27.927 5.585,27.927 5.585,5.585 	"/>
	<g>
		<polygon fill="#FFFFFF" points="19.548,5.585 19.548,27.927 22.341,27.927 22.341,19.549 27.926,19.549 27.926,16.756 
			22.341,16.756 22.341,8.378 27.926,8.378 27.926,5.585 		"/>
		<rect x="27.926" y="19.549" fill="#FFFFFF" width="2.793" height="8.378"/>
		<rect x="27.926" y="8.378" fill="#FFFFFF" width="2.793" height="8.378"/>
	</g>
	<g>
		<rect x="39.097" y="5.585" fill="#FFFFFF" width="5.585" height="2.793"/>
		<polygon fill="#FFFFFF" points="44.682,8.378 44.682,16.756 39.097,16.756 39.097,8.378 36.304,8.378 36.304,27.927 
			39.097,27.927 39.097,19.549 44.682,19.549 44.682,27.927 47.475,27.927 47.475,8.378 		"/>
	</g>
	<polygon fill="#FFFFFF" points="55.852,5.585 55.852,8.378 53.06,8.378 53.06,13.964 55.852,13.964 55.852,16.756 58.646,16.756 
		58.646,19.549 61.438,19.549 61.438,25.134 55.852,25.134 55.852,22.341 53.06,22.341 53.06,25.134 55.852,25.134 55.852,27.927 
		61.438,27.927 61.438,25.134 64.229,25.134 64.229,19.549 61.438,19.549 61.438,16.756 58.646,16.756 58.646,13.964 55.852,13.964 
		55.852,8.378 61.438,8.378 61.438,11.171 64.229,11.171 64.229,8.378 61.438,8.378 61.438,5.585 	"/>
	<polygon fill="#FFFFFF" points="69.815,5.585 69.815,27.927 72.608,27.927 72.608,16.756 75.4,16.756 75.4,22.341 78.192,22.341 
		78.192,16.756 80.985,16.756 80.985,27.927 83.778,27.927 83.778,5.585 80.985,5.585 80.985,11.171 78.192,11.171 78.192,16.756 
		75.4,16.756 75.4,11.171 72.608,11.171 72.608,5.585 	"/>
	<polygon fill="#FFFFFF" points="89.363,5.585 89.363,27.927 97.741,27.927 97.741,25.134 92.155,25.134 92.155,16.756 
		94.948,16.756 94.948,13.964 92.155,13.964 92.155,8.378 97.741,8.378 97.741,5.585 	"/>
</g>
</svg>
