<?xml version="1.0" encoding="utf-8"?>
<!-- Generator: Adobe Illustrator 17.0.2, SVG Export Plug-In . SVG Version: 6.00 Build 0)  -->
<!DOCTYPE svg PUBLIC "-//W3C//DTD SVG 1.1//EN" "http://www.w3.org/Graphics/SVG/1.1/DTD/svg11.dtd">
<svg version="1.1" id="Calque_1" xmlns="http://www.w3.org/2000/svg" xmlns:xlink="http://www.w3.org/1999/xlink" x="0px" y="0px"
	 width="197.885px" height="62.719px" viewBox="0 0 197.885 62.719" enable-background="new 0 0 197.885 62.719"
	 xml:space="preserve">
<g enable-background="new    ">
	<path fill="#241F20" d="M15.029,27.93H2.695V6.514h12.334v3.721H7.236v4.702h7.251v3.721H7.236v5.522h7.793V27.93z M6.211,4.8
		V4.405c1.68-1.953,2.827-3.423,3.442-4.409h5.01v0.308c-0.508,0.508-1.375,1.263-2.6,2.264S9.878,4.312,9.185,4.8H6.211z"/>
	<path fill="#241F20" d="M22.623,27.93h-4.468V5.137h4.468V27.93z"/>
	<path fill="#241F20" d="M37.922,27.93l-0.601-2.095h-0.234c-0.479,0.762-1.157,1.351-2.036,1.765
		c-0.879,0.415-1.88,0.623-3.003,0.623c-1.924,0-3.374-0.515-4.351-1.545s-1.465-2.513-1.465-4.446V11.553h4.468v9.565
		c0,1.182,0.21,2.068,0.63,2.659s1.089,0.886,2.007,0.886c1.25,0,2.153-0.417,2.71-1.253c0.557-0.834,0.835-2.219,0.835-4.152
		v-7.705h4.468V27.93H37.922z"/>
	<path fill="#241F20" d="M58.75,24.664c0.781,0,1.719-0.171,2.812-0.513v3.325c-1.113,0.498-2.48,0.747-4.102,0.747
		c-1.787,0-3.088-0.451-3.904-1.355c-0.815-0.902-1.223-2.258-1.223-4.064v-7.896h-2.139v-1.89l2.461-1.494l1.289-3.457h2.856v3.486
		h4.585v3.354h-4.585v7.896c0,0.635,0.178,1.104,0.535,1.406S58.164,24.664,58.75,24.664z"/>
	<path fill="#241F20" d="M71.295,28.223c-2.637,0-4.697-0.728-6.182-2.183s-2.227-3.516-2.227-6.182
		c0-2.744,0.686-4.865,2.058-6.364s3.269-2.249,5.691-2.249c2.314,0,4.116,0.659,5.405,1.978s1.934,3.14,1.934,5.464v2.168H67.413
		c0.049,1.27,0.425,2.261,1.128,2.974s1.689,1.069,2.959,1.069c0.986,0,1.919-0.103,2.798-0.308s1.797-0.532,2.754-0.981v3.457
		c-0.781,0.391-1.616,0.681-2.505,0.872C73.658,28.128,72.574,28.223,71.295,28.223z M70.665,14.424c-0.947,0-1.689,0.301-2.227,0.9
		c-0.537,0.602-0.845,1.453-0.923,2.557h6.27c-0.02-1.104-0.308-1.955-0.864-2.557C72.364,14.725,71.612,14.424,70.665,14.424z"/>
	<path fill="#241F20" d="M89.758,11.246c0.605,0,1.108,0.044,1.509,0.132l-0.337,4.189c-0.361-0.098-0.801-0.146-1.318-0.146
		c-1.426,0-2.537,0.366-3.333,1.099s-1.194,1.758-1.194,3.076v8.335h-4.468V11.553h3.384l0.659,2.754h0.22
		c0.508-0.918,1.194-1.657,2.058-2.219S88.743,11.246,89.758,11.246z"/>
	<path fill="#241F20" d="M102.391,11.246c0.605,0,1.108,0.044,1.509,0.132l-0.337,4.189c-0.361-0.098-0.801-0.146-1.318-0.146
		c-1.426,0-2.536,0.366-3.332,1.099s-1.194,1.758-1.194,3.076v8.335h-4.468V11.553h3.384l0.659,2.754h0.22
		c0.508-0.918,1.194-1.657,2.058-2.219S101.375,11.246,102.391,11.246z"/>
	<path fill="#241F20" d="M105.693,7.32c0-1.455,0.811-2.183,2.432-2.183s2.432,0.728,2.432,2.183c0,0.693-0.203,1.233-0.608,1.618
		c-0.405,0.387-1.013,0.579-1.823,0.579C106.504,9.517,105.693,8.785,105.693,7.32z M110.352,27.93h-4.468V11.553h4.468V27.93z"/>
	<path fill="#241F20" d="M120.948,24.664c0.781,0,1.719-0.171,2.812-0.513v3.325c-1.113,0.498-2.48,0.747-4.102,0.747
		c-1.787,0-3.089-0.451-3.904-1.355c-0.815-0.902-1.223-2.258-1.223-4.064v-7.896h-2.139v-1.89l2.461-1.494l1.289-3.457H119v3.486
		h4.585v3.354H119v7.896c0,0.635,0.178,1.104,0.534,1.406S120.362,24.664,120.948,24.664z"/>
	<path fill="#241F20" d="M140.964,19.713c0,2.666-0.703,4.751-2.109,6.255s-3.364,2.256-5.874,2.256
		c-1.572,0-2.959-0.344-4.16-1.033c-1.201-0.688-2.124-1.677-2.769-2.966s-0.967-2.793-0.967-4.512c0-2.676,0.698-4.756,2.095-6.24
		s3.359-2.227,5.889-2.227c1.572,0,2.959,0.342,4.16,1.025s2.124,1.665,2.769,2.944S140.964,17.994,140.964,19.713z M129.641,19.713
		c0,1.621,0.267,2.847,0.799,3.677s1.398,1.245,2.6,1.245c1.191,0,2.049-0.412,2.571-1.237s0.783-2.054,0.783-3.685
		c0-1.621-0.264-2.837-0.791-3.647s-1.392-1.216-2.593-1.216c-1.191,0-2.051,0.403-2.578,1.208
		C129.904,16.864,129.641,18.082,129.641,19.713z"/>
	<path fill="#241F20" d="M143.475,7.32c0-1.455,0.811-2.183,2.432-2.183s2.432,0.728,2.432,2.183c0,0.693-0.202,1.233-0.607,1.618
		c-0.405,0.387-1.014,0.579-1.824,0.579C144.285,9.517,143.475,8.785,143.475,7.32z M148.133,27.93h-4.468V11.553h4.468V27.93z"/>
	<path fill="#241F20" d="M160.972,11.246c0.605,0,1.108,0.044,1.509,0.132l-0.337,4.189c-0.361-0.098-0.801-0.146-1.318-0.146
		c-1.426,0-2.537,0.366-3.333,1.099s-1.193,1.758-1.193,3.076v8.335h-4.468V11.553h3.384l0.659,2.754h0.22
		c0.508-0.918,1.193-1.657,2.058-2.219S159.956,11.246,160.972,11.246z"/>
	<path fill="#241F20" d="M171.876,28.223c-2.637,0-4.697-0.728-6.182-2.183s-2.227-3.516-2.227-6.182
		c0-2.744,0.686-4.865,2.058-6.364s3.27-2.249,5.691-2.249c2.314,0,4.116,0.659,5.405,1.978s1.934,3.14,1.934,5.464v2.168h-10.562
		c0.049,1.27,0.425,2.261,1.128,2.974s1.689,1.069,2.959,1.069c0.986,0,1.919-0.103,2.798-0.308s1.797-0.532,2.754-0.981v3.457
		c-0.781,0.391-1.616,0.681-2.505,0.872C174.239,28.128,173.155,28.223,171.876,28.223z M171.246,14.424
		c-0.947,0-1.689,0.301-2.227,0.9c-0.537,0.602-0.845,1.453-0.923,2.557h6.27c-0.02-1.104-0.308-1.955-0.864-2.557
		C172.945,14.725,172.193,14.424,171.246,14.424z"/>
</g>
<g enable-background="new    ">
	<path fill="#241F20" d="M2.153,36.319c0-1.455,0.811-2.183,2.432-2.183s2.432,0.728,2.432,2.183c0,0.693-0.203,1.233-0.608,1.618
		c-0.405,0.387-1.013,0.579-1.824,0.579C2.964,38.517,2.153,37.784,2.153,36.319z M6.812,56.93H2.344V40.553h4.468V56.93z"/>
	<path fill="#241F20" d="M25.626,56.93h-4.468v-9.565c0-1.182-0.21-2.067-0.63-2.659c-0.42-0.59-1.089-0.886-2.007-0.886
		c-1.25,0-2.153,0.417-2.71,1.253c-0.557,0.834-0.835,2.219-0.835,4.152v7.705h-4.468V40.553h3.413l0.601,2.095h0.249
		c0.498-0.791,1.184-1.389,2.058-1.794s1.868-0.608,2.981-0.608c1.904,0,3.35,0.516,4.336,1.546s1.479,2.517,1.479,4.46V56.93z"/>
	<path fill="#241F20" d="M44.353,56.93h-4.468v-9.565c0-1.182-0.21-2.067-0.63-2.659c-0.42-0.59-1.089-0.886-2.007-0.886
		c-1.25,0-2.153,0.417-2.71,1.253c-0.557,0.834-0.835,2.219-0.835,4.152v7.705h-4.468V40.553h3.413l0.601,2.095h0.249
		c0.498-0.791,1.184-1.389,2.058-1.794s1.868-0.608,2.981-0.608c1.904,0,3.35,0.516,4.336,1.546s1.479,2.517,1.479,4.46V56.93z"/>
	<path fill="#241F20" d="M62.845,48.712c0,2.666-0.703,4.751-2.109,6.255s-3.364,2.256-5.874,2.256c-1.572,0-2.959-0.344-4.16-1.033
		c-1.201-0.688-2.124-1.677-2.769-2.966s-0.967-2.793-0.967-4.512c0-2.676,0.698-4.756,2.095-6.24s3.359-2.227,5.889-2.227
		c1.572,0,2.959,0.342,4.16,1.025s2.124,1.665,2.769,2.944S62.845,46.993,62.845,48.712z M51.522,48.712
		c0,1.621,0.266,2.847,0.798,3.677s1.399,1.245,2.6,1.245c1.191,0,2.048-0.412,2.571-1.237s0.784-2.054,0.784-3.685
		c0-1.621-0.264-2.837-0.791-3.647s-1.392-1.216-2.593-1.216c-1.191,0-2.051,0.403-2.578,1.208
		C51.786,45.863,51.522,47.081,51.522,48.712z"/>
	<path fill="#241F20" d="M69.443,56.93l-6.24-16.377h4.673l3.164,9.331c0.352,1.182,0.571,2.3,0.659,3.354h0.088
		c0.049-0.938,0.269-2.056,0.659-3.354l3.149-9.331h4.673l-6.24,16.377H69.443z"/>
	<path fill="#241F20" d="M92.023,56.93l-0.864-2.227h-0.117c-0.752,0.947-1.526,1.604-2.322,1.971
		c-0.796,0.365-1.833,0.549-3.113,0.549c-1.572,0-2.81-0.449-3.713-1.348s-1.355-2.178-1.355-3.838c0-1.738,0.608-3.02,1.824-3.846
		c1.216-0.824,3.049-1.281,5.5-1.369l2.842-0.088v-0.718c0-1.66-0.85-2.49-2.549-2.49c-1.309,0-2.847,0.396-4.614,1.187
		l-1.479-3.018c1.885-0.986,3.975-1.479,6.27-1.479c2.197,0,3.882,0.479,5.054,1.436s1.758,2.412,1.758,4.365V56.93H92.023z
		 M90.704,49.342l-1.729,0.059c-1.299,0.039-2.266,0.273-2.9,0.703s-0.952,1.084-0.952,1.963c0,1.26,0.723,1.89,2.168,1.89
		c1.035,0,1.863-0.298,2.483-0.894s0.93-1.387,0.93-2.373V49.342z"/>
	<path fill="#241F20" d="M113.869,56.93h-4.468v-9.565c0-1.182-0.21-2.067-0.63-2.659c-0.42-0.59-1.089-0.886-2.007-0.886
		c-1.25,0-2.153,0.417-2.71,1.253c-0.557,0.834-0.835,2.219-0.835,4.152v7.705h-4.467V40.553h3.413l0.601,2.095h0.249
		c0.498-0.791,1.185-1.389,2.059-1.794s1.867-0.608,2.98-0.608c1.904,0,3.35,0.516,4.336,1.546s1.479,2.517,1.479,4.46V56.93z"/>
	<path fill="#241F20" d="M124.378,53.663c0.781,0,1.719-0.171,2.812-0.513v3.325c-1.113,0.498-2.48,0.747-4.102,0.747
		c-1.787,0-3.088-0.451-3.903-1.355c-0.815-0.902-1.224-2.258-1.224-4.064v-7.896h-2.139v-1.89l2.461-1.494l1.289-3.457h2.856v3.486
		h4.585v3.354h-4.585v7.896c0,0.635,0.179,1.104,0.535,1.406S123.792,53.663,124.378,53.663z"/>
	<path fill="#241F20" d="M150.143,56.93h-14.971V53.78l5.376-5.435c1.592-1.631,2.632-2.762,3.12-3.391
		c0.488-0.631,0.84-1.214,1.055-1.751s0.322-1.094,0.322-1.67c0-0.859-0.237-1.499-0.711-1.919s-1.105-0.63-1.896-0.63
		c-0.83,0-1.636,0.19-2.417,0.571s-1.597,0.923-2.446,1.626l-2.461-2.915c1.055-0.898,1.929-1.533,2.622-1.904
		s1.45-0.656,2.271-0.857c0.82-0.199,1.738-0.3,2.754-0.3c1.338,0,2.52,0.244,3.545,0.732s1.821,1.172,2.388,2.051
		s0.85,1.885,0.85,3.018c0,0.986-0.174,1.911-0.521,2.776c-0.347,0.863-0.884,1.75-1.611,2.658s-2.009,2.202-3.845,3.882
		l-2.754,2.593v0.205h9.331V56.93z"/>
	<path fill="#241F20" d="M166.159,46.222c0,3.74-0.612,6.509-1.838,8.306s-3.113,2.695-5.662,2.695
		c-2.471,0-4.333-0.928-5.588-2.783s-1.883-4.595-1.883-8.218c0-3.779,0.61-6.564,1.831-8.356s3.101-2.688,5.64-2.688
		c2.471,0,4.339,0.938,5.604,2.812S166.159,42.609,166.159,46.222z M155.686,46.222c0,2.627,0.228,4.51,0.682,5.647
		s1.218,1.706,2.292,1.706c1.055,0,1.816-0.576,2.285-1.729s0.703-3.027,0.703-5.625c0-2.627-0.236-4.514-0.71-5.661
		s-1.233-1.722-2.278-1.722c-1.064,0-1.826,0.574-2.285,1.722S155.686,43.595,155.686,46.222z"/>
	<path fill="#241F20" d="M178.631,56.93h-4.526V44.537l0.044-2.036l0.073-2.227c-0.752,0.752-1.274,1.245-1.567,1.479l-2.461,1.978
		l-2.183-2.725l6.899-5.493h3.721V56.93z"/>
	<path fill="#241F20" d="M191.367,43.248c2.07,0,3.718,0.581,4.943,1.743s1.839,2.754,1.839,4.775c0,2.393-0.737,4.233-2.212,5.522
		s-3.584,1.934-6.328,1.934c-2.383,0-4.307-0.386-5.771-1.157v-3.911c0.771,0.41,1.67,0.745,2.695,1.004s1.997,0.388,2.915,0.388
		c2.764,0,4.146-1.133,4.146-3.398c0-2.158-1.431-3.237-4.292-3.237c-0.518,0-1.089,0.051-1.714,0.154
		c-0.625,0.102-1.133,0.212-1.523,0.329l-1.802-0.967l0.806-10.913h11.616v3.838h-7.646l-0.396,4.204l0.513-0.103
		C189.751,43.317,190.488,43.248,191.367,43.248z"/>
</g>
</svg>
