<svg width="417" height="73" viewBox="0 0 417 73" fill="none" xmlns="http://www.w3.org/2000/svg">
<path fill-rule="evenodd" clip-rule="evenodd" d="M93.8496 12.6391C93.8496 5.65871 99.5133 0 106.5 0H132.77C139.947 0 145.765 5.81273 145.765 12.9831C145.765 20.1535 139.947 25.9662 132.77 25.9662H105.777C99.9873 25.9662 95.2935 30.6559 95.2935 36.4409C95.2935 42.2259 99.9873 46.9156 105.777 46.9156H132.77C139.947 46.9156 145.765 52.7283 145.765 59.8986C145.765 67.069 139.947 72.8817 132.77 72.8817H106.467C99.4985 72.8817 93.8496 67.2377 93.8496 60.2755V58.1435C93.8496 52.3588 89.156 47.6693 83.3662 47.6693C77.5764 47.6693 72.8828 42.9798 72.8828 37.1951V35.7524C72.8828 29.9676 77.5764 25.2782 83.3662 25.2782C89.156 25.2782 93.8496 20.5887 93.8496 14.8039V12.6391Z" fill="#4D54FF"/>
<path fill-rule="evenodd" clip-rule="evenodd" d="M20.9668 12.6391C20.9668 5.65871 26.6304 0 33.6169 0H59.8873C67.0639 0 72.8817 5.81273 72.8817 12.9831C72.8817 20.1535 67.0639 25.9662 59.8873 25.9662H32.8945C27.1045 25.9662 22.4107 30.6559 22.4107 36.4409C22.4107 42.2259 27.1045 46.9156 32.8945 46.9156H59.8873C67.0639 46.9156 72.8817 52.7283 72.8817 59.8986C72.8817 67.069 67.0639 72.8817 59.8873 72.8817H33.584C26.6157 72.8817 20.9668 67.2377 20.9668 60.2755V58.1435C20.9668 52.3588 16.2732 47.6693 10.4834 47.6693C4.69357 47.6693 0 42.9798 0 37.1951V35.7524C0 29.9676 4.69357 25.2782 10.4834 25.2782C16.2732 25.2782 20.9668 20.5887 20.9668 14.8039V12.6391Z" fill="#A7ABFF"/>
<path fill-rule="evenodd" clip-rule="evenodd" d="M207.285 15.4788C207.285 21.2586 211.974 25.9441 217.759 25.9441C223.544 25.9441 228.233 30.6297 228.233 36.4095V60.0663C228.233 67.1441 222.491 72.8817 215.407 72.8817C208.323 72.8817 202.58 67.1441 202.58 60.0663V39.9816C202.58 27.6988 195.712 26.0695 191.604 25.9441C185.903 26.0136 181.318 30.6503 181.318 36.346L181.318 59.9097C181.318 67.0739 175.505 72.8817 168.335 72.8817C161.164 72.8817 155.352 67.0739 155.352 59.9097L155.352 39.8562C155.352 32.7426 160.695 26.876 167.591 26.045C160.761 25.6286 155.352 19.9629 155.352 13.0347C155.352 5.83585 161.192 -3.14673e-07 168.398 0L194.301 1.13132e-06C201.472 1.44448e-06 207.285 5.8078 207.285 12.9721V15.4788Z" fill="#4D54FF"/>
<path d="M253.243 17.5467C251.546 17.5467 250.08 17.1802 248.846 16.4471C247.621 15.7141 246.674 14.6886 246.006 13.3706C245.346 12.0527 245.016 10.5202 245.016 8.77337C245.016 7.0265 245.346 5.49408 246.006 4.17613C246.674 2.85817 247.621 1.83266 248.846 1.0996C250.08 0.366532 251.546 0 253.243 0C255.192 0 256.826 0.479611 258.146 1.43883C259.474 2.39805 260.409 3.69651 260.951 5.33421L257.722 6.22325C257.408 5.20163 256.877 4.41008 256.131 3.84859C255.384 3.27929 254.422 2.99464 253.243 2.99464C252.166 2.99464 251.267 3.2325 250.544 3.70821C249.829 4.18392 249.29 4.8546 248.929 5.72024C248.567 6.58588 248.387 7.60359 248.387 8.77337C248.387 9.94316 248.567 10.9609 248.929 11.8265C249.29 12.6921 249.829 13.3628 250.544 13.8385C251.267 14.3142 252.166 14.5521 253.243 14.5521C254.422 14.5521 255.384 14.2675 256.131 13.6982C256.877 13.1289 257.408 12.3373 257.722 11.3235L260.951 12.2125C260.409 13.8502 259.474 15.1487 258.146 16.1079C256.826 17.0671 255.192 17.5467 253.243 17.5467Z" fill="#4D54FF"/>
<path d="M264.961 17.1958V0.350934H268.167V14.2246H275.475V17.1958H264.961Z" fill="#4D54FF"/>
<path d="M277.479 17.1958L282.665 0.350934H287.451L292.637 17.1958H289.337L284.716 2.33956H285.329L280.779 17.1958H277.479ZM280.591 13.6865V10.7152H289.549V13.6865H280.591Z" fill="#4D54FF"/>
<path d="M301.88 17.5467C300.623 17.5467 299.487 17.3284 298.474 16.8917C297.468 16.4471 296.639 15.8155 295.987 14.9966C295.342 14.17 294.934 13.1874 294.761 12.0488L298.108 11.5575C298.344 12.5245 298.831 13.2692 299.57 13.7917C300.308 14.3142 301.149 14.5755 302.092 14.5755C302.619 14.5755 303.129 14.4936 303.624 14.3298C304.119 14.1661 304.524 13.9243 304.838 13.6046C305.161 13.2848 305.322 12.891 305.322 12.4231C305.322 12.2515 305.294 12.0878 305.239 11.9318C305.192 11.768 305.11 11.6159 304.992 11.4756C304.874 11.3352 304.705 11.2026 304.485 11.0778C304.273 10.9531 304.002 10.84 303.672 10.7386L299.263 9.45185C298.933 9.35826 298.548 9.22569 298.108 9.05412C297.676 8.88255 297.256 8.6369 296.847 8.31716C296.438 7.99742 296.097 7.57629 295.822 7.05379C295.554 6.52349 295.421 5.85671 295.421 5.05346C295.421 3.92267 295.708 2.98295 296.281 2.23429C296.855 1.48562 297.621 0.928027 298.58 0.561496C299.538 0.194963 300.599 0.0155966 301.762 0.0233955C302.933 0.0389924 303.978 0.237855 304.897 0.619985C305.817 1.00211 306.587 1.55971 307.208 2.29277C307.828 3.01804 308.276 3.90707 308.551 4.95988L305.086 5.54477C304.96 4.99887 304.728 4.53876 304.391 4.16443C304.053 3.7901 303.648 3.50545 303.177 3.31049C302.713 3.11552 302.226 3.01024 301.715 2.99464C301.212 2.97905 300.737 3.04923 300.289 3.2052C299.849 3.35338 299.487 3.57174 299.204 3.86028C298.929 4.14883 298.792 4.49197 298.792 4.88969C298.792 5.25623 298.906 5.55647 299.134 5.79043C299.361 6.01658 299.648 6.19985 299.994 6.34022C300.34 6.4806 300.693 6.59758 301.055 6.69116L304.002 7.48661C304.442 7.60359 304.929 7.75956 305.463 7.95452C305.997 8.14169 306.508 8.40684 306.995 8.74998C307.49 9.08531 307.895 9.52983 308.209 10.0835C308.532 10.6372 308.693 11.3391 308.693 12.1891C308.693 13.0938 308.5 13.8853 308.115 14.5638C307.738 15.2345 307.227 15.7921 306.583 16.2366C305.939 16.6733 305.208 17.0008 304.391 17.2192C303.581 17.4376 302.744 17.5467 301.88 17.5467Z" fill="#4D54FF"/>
<path d="M319.22 17.5467C317.962 17.5467 316.827 17.3284 315.813 16.8917C314.807 16.4471 313.978 15.8155 313.326 14.9966C312.682 14.17 312.273 13.1874 312.1 12.0488L315.448 11.5575C315.683 12.5245 316.171 13.2692 316.909 13.7917C317.648 14.3142 318.489 14.5755 319.432 14.5755C319.958 14.5755 320.469 14.4936 320.964 14.3298C321.459 14.1661 321.864 13.9243 322.178 13.6046C322.5 13.2848 322.661 12.891 322.661 12.4231C322.661 12.2515 322.634 12.0878 322.579 11.9318C322.532 11.768 322.449 11.6159 322.331 11.4756C322.213 11.3352 322.044 11.2026 321.824 11.0778C321.612 10.9531 321.341 10.84 321.011 10.7386L316.603 9.45185C316.273 9.35826 315.888 9.22569 315.448 9.05412C315.016 8.88255 314.595 8.6369 314.187 8.31716C313.778 7.99742 313.436 7.57629 313.161 7.05379C312.894 6.52349 312.76 5.85671 312.76 5.05346C312.76 3.92267 313.047 2.98295 313.621 2.23429C314.194 1.48562 314.961 0.928027 315.919 0.561496C316.878 0.194963 317.939 0.0155966 319.102 0.0233955C320.272 0.0389924 321.318 0.237855 322.237 0.619985C323.156 1.00211 323.926 1.55971 324.547 2.29277C325.168 3.01804 325.616 3.90707 325.891 4.95988L322.426 5.54477C322.3 4.99887 322.068 4.53876 321.73 4.16443C321.392 3.7901 320.988 3.50545 320.516 3.31049C320.052 3.11552 319.565 3.01024 319.054 2.99464C318.552 2.97905 318.076 3.04923 317.628 3.2052C317.188 3.35338 316.827 3.57174 316.544 3.86028C316.269 4.14883 316.131 4.49197 316.131 4.88969C316.131 5.25623 316.245 5.55647 316.473 5.79043C316.701 6.01658 316.988 6.19985 317.334 6.34022C317.679 6.4806 318.033 6.59758 318.394 6.69116L321.341 7.48661C321.781 7.60359 322.268 7.75956 322.803 7.95452C323.337 8.14169 323.848 8.40684 324.335 8.74998C324.83 9.08531 325.235 9.52983 325.549 10.0835C325.871 10.6372 326.032 11.3391 326.032 12.1891C326.032 13.0938 325.84 13.8853 325.455 14.5638C325.078 15.2345 324.567 15.7921 323.922 16.2366C323.278 16.6733 322.547 17.0008 321.73 17.2192C320.921 17.4376 320.084 17.5467 319.22 17.5467Z" fill="#4D54FF"/>
<path d="M329.802 17.1958V0.350934H340.881V3.32218H333.008V6.92512H339.467V9.89636H333.008V14.2246H340.881V17.1958H329.802Z" fill="#4D54FF"/>
<path d="M351.297 17.5467C350.04 17.5467 348.904 17.3284 347.891 16.8917C346.885 16.4471 346.056 15.8155 345.404 14.9966C344.759 14.17 344.351 13.1874 344.178 12.0488L347.525 11.5575C347.761 12.5245 348.248 13.2692 348.987 13.7917C349.726 14.3142 350.566 14.5755 351.509 14.5755C352.036 14.5755 352.547 14.4936 353.042 14.3298C353.537 14.1661 353.941 13.9243 354.256 13.6046C354.578 13.2848 354.739 12.891 354.739 12.4231C354.739 12.2515 354.711 12.0878 354.656 11.9318C354.609 11.768 354.527 11.6159 354.409 11.4756C354.291 11.3352 354.122 11.2026 353.902 11.0778C353.69 10.9531 353.419 10.84 353.089 10.7386L348.681 9.45185C348.351 9.35826 347.965 9.22569 347.525 9.05412C347.093 8.88255 346.673 8.6369 346.264 8.31716C345.856 7.99742 345.514 7.57629 345.239 7.05379C344.972 6.52349 344.838 5.85671 344.838 5.05346C344.838 3.92267 345.125 2.98295 345.698 2.23429C346.272 1.48562 347.038 0.928027 347.997 0.561496C348.956 0.194963 350.016 0.0155966 351.179 0.0233955C352.35 0.0389924 353.395 0.237855 354.315 0.619985C355.234 1.00211 356.004 1.55971 356.625 2.29277C357.246 3.01804 357.694 3.90707 357.969 4.95988L354.503 5.54477C354.378 4.99887 354.146 4.53876 353.808 4.16443C353.47 3.7901 353.065 3.50545 352.594 3.31049C352.13 3.11552 351.643 3.01024 351.132 2.99464C350.629 2.97905 350.154 3.04923 349.706 3.2052C349.266 3.35338 348.904 3.57174 348.622 3.86028C348.347 4.14883 348.209 4.49197 348.209 4.88969C348.209 5.25623 348.323 5.55647 348.551 5.79043C348.779 6.01658 349.066 6.19985 349.411 6.34022C349.757 6.4806 350.111 6.59758 350.472 6.69116L353.419 7.48661C353.859 7.60359 354.346 7.75956 354.88 7.95452C355.415 8.14169 355.926 8.40684 356.413 8.74998C356.908 9.08531 357.312 9.52983 357.627 10.0835C357.949 10.6372 358.11 11.3391 358.11 12.1891C358.11 13.0938 357.917 13.8853 357.532 14.5638C357.155 15.2345 356.645 15.7921 356 16.2366C355.356 16.6733 354.625 17.0008 353.808 17.2192C352.998 17.4376 352.162 17.5467 351.297 17.5467Z" fill="#4D54FF"/>
<path d="M253.243 45.2142C251.546 45.2142 250.08 44.8477 248.846 44.1146C247.621 43.3816 246.674 42.3561 246.006 41.0381C245.346 39.7202 245.016 38.1877 245.016 36.4409C245.016 34.694 245.346 33.1616 246.006 31.8436C246.674 30.5257 247.621 29.5002 248.846 28.7671C250.08 28.034 251.546 27.6675 253.243 27.6675C255.192 27.6675 256.826 28.1471 258.146 29.1063C259.474 30.0655 260.409 31.364 260.951 33.0017L257.722 33.8907C257.408 32.8691 256.877 32.0776 256.131 31.5161C255.384 30.9468 254.422 30.6621 253.243 30.6621C252.166 30.6621 251.267 30.9 250.544 31.3757C249.829 31.8514 249.29 32.5221 248.929 33.3877C248.567 34.2534 248.387 35.2711 248.387 36.4409C248.387 37.6106 248.567 38.6284 248.929 39.494C249.29 40.3596 249.829 41.0303 250.544 41.506C251.267 41.9817 252.166 42.2196 253.243 42.2196C254.422 42.2196 255.384 41.9349 256.131 41.3657C256.877 40.7964 257.408 40.0048 257.722 38.991L260.951 39.88C260.409 41.5177 259.474 42.8162 258.146 43.7754C256.826 44.7346 255.192 45.2142 253.243 45.2142Z" fill="#4D54FF"/>
<path d="M271.633 45.2142C270.265 45.2142 269.063 44.9413 268.026 44.3954C266.989 43.8417 266.179 43.0657 265.598 42.0675C265.016 41.0693 264.725 39.8956 264.725 38.5465V28.0418L267.979 28.0184V38.5231C267.979 39.0768 268.073 39.5798 268.261 40.0321C268.45 40.4844 268.709 40.8743 269.039 41.2019C269.377 41.5294 269.766 41.7829 270.206 41.9622C270.654 42.1338 271.13 42.2196 271.633 42.2196C272.151 42.2196 272.63 42.1299 273.071 41.9505C273.518 41.7712 273.907 41.5177 274.237 41.1902C274.567 40.8626 274.823 40.4727 275.004 40.0204C275.192 39.5681 275.286 39.069 275.286 38.5231V28.0184H278.54V38.5465C278.54 39.8956 278.249 41.0693 277.667 42.0675C277.086 43.0657 276.277 43.8417 275.239 44.3954C274.202 44.9413 273 45.2142 271.633 45.2142Z" fill="#4D54FF"/>
<path d="M283.245 44.8633V28.0184H286.451V41.8921H293.758V44.8633H283.245Z" fill="#4D54FF"/>
<path d="M298.53 44.8633V30.9897H293.179V28.0184H307.087V30.9897H301.736V44.8633H298.53Z" fill="#4D54FF"/>
<path d="M317.067 45.2142C315.7 45.2142 314.498 44.9413 313.46 44.3954C312.423 43.8417 311.614 43.0657 311.032 42.0675C310.451 41.0693 310.16 39.8956 310.16 38.5465V28.0418L313.413 28.0184V38.5231C313.413 39.0768 313.507 39.5798 313.696 40.0321C313.885 40.4844 314.144 40.8743 314.474 41.2019C314.812 41.5294 315.201 41.7829 315.641 41.9622C316.089 42.1338 316.564 42.2196 317.067 42.2196C317.586 42.2196 318.065 42.1299 318.505 41.9505C318.953 41.7712 319.342 41.5177 319.672 41.1902C320.002 40.8626 320.257 40.4727 320.438 40.0204C320.627 39.5681 320.721 39.069 320.721 38.5231V28.0184H323.974V38.5465C323.974 39.8956 323.683 41.0693 323.102 42.0675C322.521 43.0657 321.711 43.8417 320.674 44.3954C319.637 44.9413 318.434 45.2142 317.067 45.2142Z" fill="#4D54FF"/>
<path d="M328.443 44.8633V28.0184H335.61C335.775 28.0184 335.995 28.0262 336.27 28.0418C336.553 28.0496 336.804 28.073 337.024 28.112C338.038 28.268 338.867 28.5994 339.511 29.1063C340.163 29.6132 340.643 30.2527 340.949 31.0248C341.256 31.789 341.409 32.643 341.409 33.5866C341.409 34.9981 341.055 36.2069 340.348 37.2129C339.641 38.2111 338.533 38.8272 337.024 39.0612L335.61 39.1548H331.649V44.8633H328.443ZM338.014 44.8633L334.667 38.0084L337.967 37.3767L341.645 44.8633H338.014ZM331.649 36.1835H335.468C335.633 36.1835 335.814 36.1757 336.011 36.1601C336.207 36.1445 336.388 36.1133 336.553 36.0665C336.985 35.9496 337.319 35.7546 337.555 35.4816C337.79 35.2009 337.951 34.8928 338.038 34.5575C338.132 34.2144 338.179 33.8907 338.179 33.5866C338.179 33.2824 338.132 32.9627 338.038 32.6274C337.951 32.2842 337.79 31.9762 337.555 31.7032C337.319 31.4225 336.985 31.2236 336.553 31.1067C336.388 31.0599 336.207 31.0287 336.011 31.0131C335.814 30.9975 335.633 30.9897 335.468 30.9897H331.649V36.1835Z" fill="#4D54FF"/>
<path d="M345.415 44.8633V28.0184H356.494V30.9897H348.621V34.5926H355.08V37.5639H348.621V41.8921H356.494V44.8633H345.415Z" fill="#4D54FF"/>
<path d="M360.734 44.8633V28.0184H363.94V41.8921H371.248V44.8633H360.734Z" fill="#4D54FF"/>
<path d="M374.666 44.8633V28.0184H377.872V41.8921H385.18V44.8633H374.666Z" fill="#4D54FF"/>
<path d="M388.363 44.8633V28.0184H399.443V30.9897H391.569V34.5926H398.028V37.5639H391.569V41.8921H399.443V44.8633H388.363Z" fill="#4D54FF"/>
<path d="M409.858 45.2142C408.601 45.2142 407.466 44.9959 406.452 44.5592C405.446 44.1146 404.617 43.483 403.965 42.6641C403.321 41.8375 402.912 40.8548 402.739 39.7163L406.087 39.2249C406.322 40.192 406.81 40.9367 407.548 41.4592C408.287 41.9817 409.128 42.243 410.071 42.243C410.597 42.243 411.108 42.1611 411.603 41.9973C412.098 41.8336 412.503 41.5918 412.817 41.2721C413.139 40.9523 413.3 40.5585 413.3 40.0906C413.3 39.919 413.273 39.7552 413.218 39.5993C413.171 39.4355 413.088 39.2834 412.97 39.1431C412.852 39.0027 412.683 38.8701 412.463 38.7453C412.251 38.6206 411.98 38.5075 411.65 38.4061L407.242 37.1193C406.912 37.0258 406.527 36.8932 406.087 36.7216C405.655 36.55 405.234 36.3044 404.826 35.9846C404.417 35.6649 404.075 35.2438 403.8 34.7213C403.533 34.191 403.399 33.5242 403.399 32.721C403.399 31.5902 403.686 30.6504 404.26 29.9018C404.833 29.1531 405.6 28.5955 406.558 28.229C407.517 27.8625 408.578 27.6831 409.741 27.6909C410.911 27.7065 411.957 27.9053 412.876 28.2875C413.795 28.6696 414.565 29.2272 415.186 29.9603C415.807 30.6855 416.255 31.5746 416.53 32.6274L413.065 33.2123C412.939 32.6664 412.707 32.2062 412.369 31.8319C412.031 31.4576 411.627 31.1729 411.155 30.978C410.691 30.783 410.204 30.6777 409.693 30.6621C409.191 30.6465 408.715 30.7167 408.267 30.8727C407.827 31.0209 407.466 31.2392 407.183 31.5278C406.908 31.8163 406.77 32.1595 406.77 32.5572C406.77 32.9237 406.884 33.224 407.112 33.4579C407.34 33.6841 407.627 33.8673 407.973 34.0077C408.318 34.1481 408.672 34.2651 409.033 34.3587L411.98 35.1541C412.42 35.2711 412.907 35.4271 413.442 35.622C413.976 35.8092 414.487 36.0743 414.974 36.4175C415.469 36.7528 415.874 37.1973 416.188 37.751C416.51 38.3047 416.671 39.0066 416.671 39.8566C416.671 40.7613 416.479 41.5528 416.094 42.2313C415.717 42.902 415.206 43.4596 414.561 43.9041C413.917 44.3408 413.186 44.6683 412.369 44.8867C411.56 45.1051 410.723 45.2142 409.858 45.2142Z" fill="#4D54FF"/>
<path d="M245.959 72.5308V55.6859H249.212L256.59 66.9158V55.6859H259.843V72.5308H256.59L249.212 61.3009V72.5308H245.959Z" fill="#4D54FF"/>
<path d="M271.218 72.8817C269.851 72.8817 268.649 72.6088 267.611 72.0629C266.574 71.5092 265.765 70.7332 265.183 69.735C264.602 68.7368 264.311 67.5631 264.311 66.214V55.7093L267.564 55.6859V66.1906C267.564 66.7443 267.659 67.2473 267.847 67.6996C268.036 68.1519 268.295 68.5418 268.625 68.8694C268.963 69.1969 269.352 69.4504 269.792 69.6297C270.24 69.8013 270.715 69.8871 271.218 69.8871C271.737 69.8871 272.216 69.7974 272.656 69.618C273.104 69.4387 273.493 69.1852 273.823 68.8577C274.153 68.5301 274.408 68.1402 274.589 67.6879C274.778 67.2356 274.872 66.7365 274.872 66.1906V55.6859H278.125V66.214C278.125 67.5631 277.834 68.7368 277.253 69.735C276.672 70.7332 275.862 71.5092 274.825 72.0629C273.788 72.6088 272.585 72.8817 271.218 72.8817Z" fill="#4D54FF"/>
<path d="M282.594 72.5308V55.6859H285.47L291.081 66.869L296.692 55.6859H299.568V72.5308H296.574V62.4707L291.647 72.5308H290.515L285.588 62.4707V72.5308H282.594Z" fill="#4D54FF"/>
<path d="M311.433 53.9312H308.275L309.17 51.1238H312.329L311.433 53.9312ZM304.055 72.5308V55.6859H315.134V58.6572H307.261V62.2601H313.72V65.2313H307.261V69.5595H315.134V72.5308H304.055Z" fill="#4D54FF"/>
<path d="M319.138 72.5308V55.6859H326.305C326.47 55.6859 326.69 55.6937 326.965 55.7093C327.248 55.7171 327.499 55.7405 327.719 55.7795C328.733 55.9355 329.562 56.2669 330.206 56.7738C330.858 57.2807 331.338 57.9202 331.644 58.6923C331.951 59.4565 332.104 60.3105 332.104 61.2541C332.104 62.6656 331.75 63.8744 331.043 64.8804C330.336 65.8786 329.228 66.4947 327.719 66.7287L326.305 66.8223H322.344V72.5308H319.138ZM328.709 72.5308L325.362 65.6759L328.662 65.0442L332.34 72.5308H328.709ZM322.344 63.851H326.163C326.328 63.851 326.509 63.8432 326.705 63.8276C326.902 63.812 327.083 63.7808 327.248 63.734C327.68 63.617 328.014 63.4221 328.25 63.1491C328.485 62.8684 328.646 62.5603 328.733 62.225C328.827 61.8819 328.874 61.5582 328.874 61.2541C328.874 60.9499 328.827 60.6302 328.733 60.2949C328.646 59.9517 328.485 59.6437 328.25 59.3707C328.014 59.09 327.68 58.8911 327.248 58.7741C327.083 58.7274 326.902 58.6962 326.705 58.6806C326.509 58.665 326.328 58.6572 326.163 58.6572H322.344V63.851Z" fill="#4D54FF"/>
<path d="M336.345 72.5308V55.6859H339.551V72.5308H336.345Z" fill="#4D54FF"/>
<path d="M357.536 72.8817L352.585 67.992L354.565 66.0268L359.492 70.9165L357.536 72.8817ZM351.548 72.8817C349.851 72.8817 348.385 72.5152 347.151 71.7821C345.926 71.0491 344.979 70.0236 344.311 68.7056C343.651 67.3876 343.321 65.8552 343.321 64.1084C343.321 62.3615 343.651 60.8291 344.311 59.5111C344.979 58.1931 345.926 57.1676 347.151 56.4346C348.385 55.7015 349.851 55.335 351.548 55.335C353.245 55.335 354.707 55.7015 355.933 56.4346C357.166 57.1676 358.113 58.1931 358.773 59.5111C359.441 60.8291 359.775 62.3615 359.775 64.1084C359.775 65.8552 359.441 67.3876 358.773 68.7056C358.113 70.0236 357.166 71.0491 355.933 71.7821C354.707 72.5152 353.245 72.8817 351.548 72.8817ZM351.548 69.8871C352.624 69.9027 353.52 69.6726 354.235 69.1969C354.95 68.7212 355.485 68.0466 355.838 67.1732C356.2 66.2997 356.38 65.2781 356.38 64.1084C356.38 62.9386 356.2 61.9248 355.838 61.0669C355.485 60.2091 354.95 59.5423 354.235 59.0666C353.52 58.5909 352.624 58.3452 351.548 58.3296C350.471 58.314 349.576 58.5441 348.86 59.0198C348.145 59.4955 347.607 60.1701 347.246 61.0435C346.892 61.917 346.715 62.9386 346.715 64.1084C346.715 65.2781 346.892 66.2919 347.246 67.1498C347.607 68.0076 348.145 68.6744 348.86 69.1501C349.576 69.6258 350.471 69.8715 351.548 69.8871Z" fill="#4D54FF"/>
<path d="M370.214 72.8817C368.847 72.8817 367.644 72.6088 366.607 72.0629C365.57 71.5092 364.76 70.7332 364.179 69.735C363.597 68.7368 363.307 67.5631 363.307 66.214V55.7093L366.56 55.6859V66.1906C366.56 66.7443 366.654 67.2473 366.843 67.6996C367.031 68.1519 367.291 68.5418 367.621 68.8694C367.959 69.1969 368.348 69.4504 368.788 69.6297C369.235 69.8013 369.711 69.8871 370.214 69.8871C370.732 69.8871 371.212 69.7974 371.652 69.618C372.1 69.4387 372.489 69.1852 372.819 68.8577C373.149 68.5301 373.404 68.1402 373.585 67.6879C373.773 67.2356 373.868 66.7365 373.868 66.1906V55.6859H377.121V66.214C377.121 67.5631 376.83 68.7368 376.249 69.735C375.667 70.7332 374.858 71.5092 373.821 72.0629C372.783 72.6088 371.581 72.8817 370.214 72.8817Z" fill="#4D54FF"/>
<path d="M381.59 72.5308V55.6859H392.67V58.6572H384.796V62.2601H391.255V65.2313H384.796V69.5595H392.67V72.5308H381.59Z" fill="#4D54FF"/>
<path d="M403.086 72.8817C401.828 72.8817 400.693 72.6634 399.679 72.2266C398.673 71.7821 397.844 71.1505 397.192 70.3316C396.548 69.505 396.139 68.5223 395.966 67.3838L399.314 66.8924C399.55 67.8595 400.037 68.6042 400.775 69.1267C401.514 69.6492 402.355 69.9105 403.298 69.9105C403.824 69.9105 404.335 69.8286 404.83 69.6648C405.325 69.5011 405.73 69.2593 406.044 68.9396C406.366 68.6198 406.527 68.226 406.527 67.7581C406.527 67.5865 406.5 67.4227 406.445 67.2668C406.398 67.103 406.315 66.9509 406.197 66.8106C406.08 66.6702 405.911 66.5376 405.691 66.4128C405.478 66.2881 405.207 66.175 404.877 66.0736L400.469 64.7868C400.139 64.6932 399.754 64.5607 399.314 64.3891C398.882 64.2175 398.461 63.9719 398.053 63.6521C397.644 63.3324 397.302 62.9113 397.027 62.3888C396.76 61.8585 396.626 61.1917 396.626 60.3884C396.626 59.2577 396.913 58.3179 397.487 57.5693C398.061 56.8206 398.827 56.263 399.785 55.8965C400.744 55.5299 401.805 55.3506 402.968 55.3584C404.139 55.374 405.184 55.5728 406.103 55.955C407.022 56.3371 407.793 56.8947 408.413 57.6278C409.034 58.353 409.482 59.2421 409.757 60.2949L406.292 60.8798C406.166 60.3339 405.934 59.8737 405.596 59.4994C405.258 59.1251 404.854 58.8404 404.382 58.6455C403.919 58.4505 403.431 58.3452 402.921 58.3296C402.418 58.314 401.942 58.3842 401.494 58.5402C401.054 58.6884 400.693 58.9067 400.41 59.1953C400.135 59.4838 399.998 59.827 399.998 60.2247C399.998 60.5912 400.111 60.8915 400.339 61.1254C400.567 61.3516 400.854 61.5348 401.2 61.6752C401.546 61.8156 401.899 61.9326 402.261 62.0261L405.207 62.8216C405.647 62.9386 406.135 63.0945 406.669 63.2895C407.203 63.4767 407.714 63.7418 408.201 64.085C408.696 64.4203 409.101 64.8648 409.415 65.4185C409.737 65.9722 409.898 66.6741 409.898 67.5241C409.898 68.4287 409.706 69.2203 409.321 69.8988C408.944 70.5695 408.433 71.1271 407.789 71.5716C407.144 72.0083 406.413 72.3358 405.596 72.5542C404.787 72.7725 403.95 72.8817 403.086 72.8817Z" fill="#4D54FF"/>
</svg>
