<?xml version="1.0" encoding="utf-8"?>
<!-- Generator: Adobe Illustrator 19.0.0, SVG Export Plug-In . SVG Version: 6.00 Build 0)  -->
<svg version="1.1" id="Calque_1" xmlns="http://www.w3.org/2000/svg" xmlns:xlink="http://www.w3.org/1999/xlink" x="0px" y="0px"
	 viewBox="3 -3 256 256" style="enable-background:new 3 -3 256 256;" xml:space="preserve">
<style type="text/css">
	.st0{fill:#395185;}
	.st1{fill:#FFFFFF;}
</style>
<g>
	<path class="st0" d="M244.9,253c7.8,0,14.1-6.3,14.1-14.1V11.1C259,3.3,252.7-3,244.9-3H17.1C9.3-3,3,3.3,3,11.1v227.7
		c0,7.8,6.3,14.1,14.1,14.1H244.9"/>
	<path class="st1" d="M179.6,253v-99.1h33.3l5-38.6h-38.3V90.6c0-11.2,3.1-18.8,19.1-18.8l20.5,0V37.2c-3.5-0.5-15.7-1.5-29.8-1.5
		c-29.5,0-49.7,18-49.7,51.1v28.5h-33.4v38.6h33.4V253H179.6"/>
</g>
</svg>
