<?xml version="1.0" encoding="utf-8"?>
<!-- Generator: Adobe Illustrator 19.0.0, SVG Export Plug-In . SVG Version: 6.00 Build 0)  -->
<svg version="1.1" id="Calque_1" xmlns="http://www.w3.org/2000/svg" xmlns:xlink="http://www.w3.org/1999/xlink" x="0px" y="0px"
	 viewBox="-112 114 24 24" style="enable-background:new -112 114 24 24;" xml:space="preserve">
<style type="text/css">
	.st0{fill:none;}
</style>
<path class="st0" d="M-112,114h24v24h-24V114z"/>
<path d="M-96,125c1.7,0,3-1.3,3-3s-1.3-3-3-3s-3,1.3-3,3S-97.7,125-96,125z M-104,125c1.7,0,3-1.3,3-3s-1.3-3-3-3s-3,1.3-3,3
	S-105.7,125-104,125z M-104,127c-2.3,0-7,1.2-7,3.5v2.5h14v-2.5C-97,128.2-101.7,127-104,127z M-96,127c-0.3,0-0.6,0-1,0.1
	c1.2,0.8,2,2,2,3.4v2.5h6v-2.5C-89,128.2-93.7,127-96,127z"/>
</svg>
