<?xml version="1.0" encoding="utf-8"?>
<!-- Generator: Adobe Illustrator 19.0.0, SVG Export Plug-In . SVG Version: 6.00 Build 0)  -->
<svg version="1.1" id="Calque_1" xmlns="http://www.w3.org/2000/svg" xmlns:xlink="http://www.w3.org/1999/xlink" x="0px" y="0px"
	 viewBox="-112 114 24 24" style="enable-background:new -112 114 24 24;" xml:space="preserve">
<style type="text/css">
	.st0{fill:none;}
	.st1{fill:#FFFFFF;}
</style>
<path class="st0" d="M-112,114h24v24h-24V114z"/>
<path class="st1" d="M-111,135h4v-12h-4V135z M-89,124c0-1.1-0.9-2-2-2h-6.3l0.9-4.6l0-0.3c0-0.4-0.2-0.8-0.4-1.1l-1.1-1.1l-6.6,6.6
	c-0.4,0.4-0.6,0.9-0.6,1.4v10c0,1.1,0.9,2,2,2h9c0.8,0,1.5-0.5,1.8-1.2l3-7c0.1-0.2,0.1-0.5,0.1-0.7V124L-89,124L-89,124z"/>
</svg>
