<?xml version="1.0" encoding="utf-8"?>
<!-- Generator: Adobe Illustrator 19.0.0, SVG Export Plug-In . SVG Version: 6.00 Build 0)  -->
<svg version="1.1" id="Calque_1" xmlns="http://www.w3.org/2000/svg" xmlns:xlink="http://www.w3.org/1999/xlink" x="0px" y="0px"
	 viewBox="-112 114 24 24" style="enable-background:new -112 114 24 24;" xml:space="preserve">
<path d="M-97,117h-9c-0.8,0-1.5,0.5-1.8,1.2l-3,7.1c-0.1,0.2-0.1,0.5-0.1,0.7v1.9l0,0l0,0.1c0,1.1,0.9,2,2,2h6.3l-0.9,4.6l0,0.3
	c0,0.4,0.2,0.8,0.4,1.1l1.1,1.1l6.6-6.6c0.4-0.4,0.6-0.9,0.6-1.4v-10C-95,117.9-95.9,117-97,117z M-93,117v12h4v-12H-93z"/>
</svg>
