<svg width="700" height="700" viewBox="0 0 700 700" fill="none" xmlns="http://www.w3.org/2000/svg">
<mask id="mask0_1194_106" style="mask-type:alpha" maskUnits="userSpaceOnUse" x="0" y="0" width="700" height="700">
<rect width="700" height="700" fill="#4D54FF"/>
</mask>
<g mask="url(#mask0_1194_106)">
<path d="M262.5 583.332H145.833C129.792 583.332 116.059 577.62 104.635 566.197C93.2118 554.773 87.5 541.04 87.5 524.999V116.665C87.5 100.624 93.2118 86.8911 104.635 75.4674C116.059 64.0438 129.792 58.332 145.833 58.332H554.167C570.208 58.332 583.941 64.0438 595.365 75.4674C606.788 86.8911 612.5 100.624 612.5 116.665V524.999C612.5 541.04 606.788 554.773 595.365 566.197C583.941 577.62 570.208 583.332 554.167 583.332H437.5L370.417 650.415C364.583 656.249 357.778 659.165 350 659.165C342.222 659.165 335.417 656.249 329.583 650.415L262.5 583.332ZM145.833 524.999H285.833L350 589.165L414.167 524.999H554.167V116.665H145.833V524.999ZM347.083 495.832C357.292 495.832 365.92 492.308 372.969 485.259C380.017 478.21 383.542 469.582 383.542 459.374C383.542 449.165 380.017 440.537 372.969 433.488C365.92 426.44 357.292 422.915 347.083 422.915C336.875 422.915 328.247 426.44 321.198 433.488C314.149 440.537 310.625 449.165 310.625 459.374C310.625 469.582 314.149 478.21 321.198 485.259C328.247 492.308 336.875 495.832 347.083 495.832ZM398.125 233.332C398.125 241.596 395.451 250.467 390.104 259.947C384.757 269.426 375.764 279.756 363.125 290.936C354.861 298.228 348.177 305.155 343.073 311.717C337.969 318.28 333.715 324.964 330.312 331.77C328.368 335.658 326.91 339.547 325.938 343.436C324.965 347.325 323.993 351.7 323.021 356.561C322.049 363.853 323.993 370.172 328.854 375.52C333.715 380.867 340.035 383.54 347.812 383.54C354.618 383.54 360.694 381.11 366.042 376.249C371.389 371.388 375.035 364.825 376.979 356.561C378.437 349.756 381.233 343.436 385.365 337.603C389.497 331.77 396.181 324.235 405.417 314.999C422.431 297.985 434.462 283.645 441.51 271.978C448.559 260.311 452.083 247.429 452.083 233.332C452.083 207.082 443.212 185.936 425.469 169.895C407.726 153.853 383.542 145.832 352.917 145.832C331.042 145.832 312.083 150.45 296.042 159.686C280 168.922 267.118 181.804 257.396 198.332C253.993 204.165 253.872 210.242 257.031 216.561C260.191 222.881 265.174 227.256 271.979 229.686C278.299 232.117 284.618 232.117 290.937 229.686C297.257 227.256 302.361 223.367 306.25 218.02C311.597 211.214 318.16 205.745 325.938 201.613C333.715 197.481 342.708 195.415 352.917 195.415C365.556 195.415 376.25 198.94 385 205.988C393.75 213.037 398.125 222.151 398.125 233.332Z" fill="#4D54FF"/>
</g>
</svg>
