<?xml version="1.0" encoding="utf-8"?>
<!-- Generator: Adobe Illustrator 17.0.2, SVG Export Plug-In . SVG Version: 6.00 Build 0)  -->
<!DOCTYPE svg PUBLIC "-//W3C//DTD SVG 1.1//EN" "http://www.w3.org/Graphics/SVG/1.1/DTD/svg11.dtd">
<svg version="1.1" id="Capa_1" xmlns="http://www.w3.org/2000/svg" xmlns:xlink="http://www.w3.org/1999/xlink" x="0px" y="0px"
	 width="36.289px" height="36.289px" viewBox="0 0 36.289 36.289" enable-background="new 0 0 36.289 36.289" xml:space="preserve">
<g>
	<path fill="#282828" d="M3.432,18.564c1.306,1.254,3.146,1.398,4.42,1.398c0.654,0,1.286-0.043,1.884-0.089
		c0.047,0,0.137,0.026,0.215,0.054c0.125,0.037,0.274,0.084,0.444,0.092c0.607,0.131,1.078,0.258,1.521,0.609
		c0.901,0.801,1.692,1.803,2.459,2.771l0.547,0.69c1.004,1.209,2.231,2.816,2.844,4.543c0.324,0.862,0.455,1.776,0.41,2.881
		c-0.009,0.211-0.021,0.414-0.031,0.613c-0.047,0.803-0.091,1.561,0.171,2.34c0.371,1.16,1.284,1.823,2.507,1.823
		c0.82,0,1.684-0.312,2.34-0.834c1.645-1.144,2.703-3.312,2.832-5.806c0.066-1.396-0.359-2.6-0.771-3.76
		c-0.359-1.012-0.699-1.967-0.695-3c0.004-1.566,1.357-2.002,3.271-2.447c0.21-0.049,0.416-0.096,0.578-0.139
		c0.22-0.039,0.443-0.076,0.669-0.115c1.436-0.237,3.062-0.51,4.239-1.633c0.89-0.883,1.312-2.339,1.078-3.712
		c-0.17-0.99-0.658-1.805-1.363-2.289c0.445-1.686-0.381-3.646-1.981-4.693c0.154-0.762,0.011-1.623-0.414-2.428
		c-0.475-0.9-1.229-1.604-2.069-1.939c-0.002-1.543-1.057-2.887-2.715-3.357C25.363,0.045,24.863,0,24.293,0
		c-0.838,0-1.678,0.098-2.492,0.189C21.53,0.22,21.26,0.25,20.949,0.283c-0.479,0.1-0.98,0.16-1.484,0.227
		c-1.035,0.133-2.105,0.27-3.076,0.688c-0.784,0.35-1.476,0.855-2.146,1.342c-0.219,0.158-0.434,0.314-0.652,0.467
		c-0.215,0.156-0.434,0.359-0.658,0.57c-0.385,0.363-0.783,0.738-1.168,0.812c-0.342,0.066-0.669,0.102-0.985,0.137
		C10.426,4.563,10.085,4.6,9.749,4.671H9.583c-0.354,0-0.743-0.021-1.147-0.047c-0.459-0.025-0.937-0.057-1.41-0.057
		c-1.165,0-2.625,0.15-3.564,1.307c-1.387,1.646-1.588,4.154-1.596,6.617l-0.002,0.107C1.842,14.404,1.828,17.137,3.432,18.564z
		 M4.111,12.973l0.002-0.48C4.102,10.608,4.221,8.684,5.141,7.35c0.31-0.475,0.926-0.51,1.767-0.51H7
		C6.524,7.807,6.34,8.93,6.225,9.947c-0.194,1.855-0.176,3.668,0.062,5.396c0.104,0.756,0.261,1.58,0.623,2.314
		c-0.684-0.075-1.381-0.263-1.916-0.717C4.082,16.182,4.098,14.25,4.111,12.973z"/>
</g>
</svg>
