<?xml version="1.0" encoding="utf-8"?>
<!-- Generator: Adobe Illustrator 19.0.0, SVG Export Plug-In . SVG Version: 6.00 Build 0)  -->
<svg version="1.1" id="Calque_1" xmlns="http://www.w3.org/2000/svg" xmlns:xlink="http://www.w3.org/1999/xlink" x="0px" y="0px"
	 viewBox="-281 233 36 36" style="enable-background:new -281 233 36 36;" xml:space="preserve">
<style type="text/css">
	.st0{fill:none;}
</style>
<path class="st0" d="M-281,233h36v36h-36V233z"/>
<path d="M-257,249.5c2.5,0,4.5-2,4.5-4.5s-2-4.5-4.5-4.5c-2.5,0-4.5,2-4.5,4.5S-259.5,249.5-257,249.5z M-269,249.5
	c2.5,0,4.5-2,4.5-4.5s-2-4.5-4.5-4.5s-4.5,2-4.5,4.5S-271.5,249.5-269,249.5z M-269,252.5c-3.5,0-10.5,1.8-10.5,5.2v3.8h21v-3.8
	C-258.5,254.3-265.5,252.5-269,252.5z M-257,252.5c-0.4,0-0.9,0-1.5,0.1c1.7,1.3,3,3,3,5.2v3.8h9v-3.8
	C-246.5,254.3-253.5,252.5-257,252.5z"/>
</svg>
