<?xml version="1.0" encoding="utf-8"?>
<!-- Generator: Adobe Illustrator 19.0.0, SVG Export Plug-In . SVG Version: 6.00 Build 0)  -->
<svg version="1.1" id="Calque_1" xmlns="http://www.w3.org/2000/svg" xmlns:xlink="http://www.w3.org/1999/xlink" x="0px" y="0px"
	 viewBox="-112 114 24 24" style="enable-background:new -112 114 24 24;" xml:space="preserve">
<style type="text/css">
	.st0{fill:none;}
</style>
<path class="st0" d="M-112,114h24v24h-24V114z"/>
<path d="M-108.1,126c0-1.7,1.4-3.1,3.1-3.1h4V121h-4c-2.8,0-5,2.2-5,5c0,2.8,2.2,5,5,5h4v-1.9h-4
	C-106.7,129.1-108.1,127.7-108.1,126z M-104,127h8v-2h-8V127z M-95,121h-4v1.9h4c1.7,0,3.1,1.4,3.1,3.1s-1.4,3.1-3.1,3.1h-4v1.9h4
	c2.8,0,5-2.2,5-5C-90,123.2-92.2,121-95,121z"/>
</svg>
