<?xml version="1.0" encoding="utf-8"?>
<!-- Generator: Adobe Illustrator 19.0.0, SVG Export Plug-In . SVG Version: 6.00 Build 0)  -->
<svg version="1.1" id="Calque_1" xmlns="http://www.w3.org/2000/svg" xmlns:xlink="http://www.w3.org/1999/xlink" x="0px" y="0px"
	 viewBox="-112 114 24 24" style="enable-background:new -112 114 24 24;" xml:space="preserve">
<style type="text/css">
	.st0{fill:none;}
</style>
<path d="M-93,122h-14c-1.7,0-3,1.3-3,3v6h4v4h12v-4h4v-6C-90,123.3-91.3,122-93,122z M-96,133h-8v-5h8V133z M-93,126
	c-0.6,0-1-0.4-1-1s0.4-1,1-1s1,0.4,1,1S-92.4,126-93,126z M-94,117h-12v4h12V117z"/>
<path class="st0" d="M-112,114h24v24h-24V114z"/>
</svg>
