<?xml version="1.0" encoding="utf-8"?>
<!-- Generator: Adobe Illustrator 19.0.0, SVG Export Plug-In . SVG Version: 6.00 Build 0)  -->
<svg version="1.1" id="Calque_1" xmlns="http://www.w3.org/2000/svg" xmlns:xlink="http://www.w3.org/1999/xlink" x="0px" y="0px"
	 viewBox="-287 239 24 24" style="enable-background:new -287 239 24 24;" xml:space="preserve">
<style type="text/css">
	.st0{fill:none;}
</style>
<path class="st0" d="M-287,239h24v24h-24V239z"/>
<path d="M-269,255.1c-0.8,0-1.4,0.3-2,0.8l-7.1-4.2c0-0.2,0.1-0.5,0.1-0.7s0-0.5-0.1-0.7l7-4.1c0.5,0.5,1.2,0.8,2,0.8
	c1.7,0,3-1.3,3-3c0-1.7-1.3-3-3-3c-1.7,0-3,1.3-3,3c0,0.2,0,0.5,0.1,0.7l-7,4.1c-0.5-0.5-1.2-0.8-2-0.8c-1.7,0-3,1.3-3,3s1.3,3,3,3
	c0.8,0,1.5-0.3,2-0.8l7.1,4.2c-0.1,0.2-0.1,0.4-0.1,0.6c0,1.6,1.3,2.9,2.9,2.9s2.9-1.3,2.9-2.9C-266.2,256.4-267.4,255.1-269,255.1z
	"/>
</svg>
